<svg id="Capa_1" data-name="Capa 1" xmlns="http://www.w3.org/2000/svg" viewBox="0 0 50 50"><defs><style>.cls-1{fill:#c4ced4;}.cls-2{fill:none;stroke:#000;stroke-miterlimit:3.86;stroke-width:0.03px;}.cls-3{fill:#fff;}</style></defs><path class="cls-1" d="M48.37,20.38,48.78,19l-1.87-.76-.24-.1.33-.95-1.78-.57.22-.76.21-.71-.7-.24A59.48,59.48,0,0,0,25,11.62,59.47,59.47,0,0,0,5.05,14.87l-.7.24.21.71.22.76L3,17.15l.33.95-.24.1L1.21,19l.42,1.42L0,21,4,33.22l1.66-.6L6.22,34l2.13-.88.2-.08.22.69.78-.34a39.21,39.21,0,0,1,5.25-1.77l-1.95,2.9,6.08-2,2.41,5.81,1.76-6L30,34.13l-3.2-3.69a37.76,37.76,0,0,1,13.61,3l.78.33.22-.68.2.08,2.13.88.54-1.41,1.66.6L50,21l-1.63-.59"/><path d="M47.37,20.89l.42-1.45L46.6,19l-.92-.36.33-.95-1.75-.56.44-1.48A58.59,58.59,0,0,0,25,12.39,58.57,58.57,0,0,0,5.3,15.6l.44,1.48L4,17.65l.33.95L3.4,19l-1.19.48.42,1.45L1,21.47l3.51,10.7,1.63-.58L6.69,33,8,32.4,9,32l.23.71a40.81,40.81,0,0,1,7.13-2.24l-1.92,2.86,4.85-1.58,1.93,4.65,1.41-4.85L28.16,33,25.33,29.7a37.51,37.51,0,0,1,15.43,3L41,32l1,.39,1.35.56.52-1.37,1.63.58L49,21.47l-1.61-.58"/><path class="cls-2" d="M47.37,20.89l.42-1.45L46.6,19l-.92-.36.33-.95-1.75-.56.44-1.48A58.59,58.59,0,0,0,25,12.39,58.57,58.57,0,0,0,5.3,15.6l.44,1.48L4,17.65l.33.95L3.4,19l-1.19.48.42,1.45L1,21.47l3.51,10.7,1.63-.58L6.69,33,8,32.4,9,32l.23.71a40.81,40.81,0,0,1,7.13-2.24l-1.92,2.86,4.85-1.58,1.93,4.65,1.41-4.85L28.16,33,25.33,29.7a37.51,37.51,0,0,1,15.43,3L41,32l1,.39,1.35.56.52-1.37,1.63.58L49,21.47Z"/><path class="cls-3" d="M3.85,20.07h0l-.18.07.44,1.49-1.57.57,2.76,8.41,1.57-.57.5,1.32.2-.08a43.86,43.86,0,0,1,34.85,0l.2.08.5-1.32,1.57.57,2.76-8.41-1.57-.57.44-1.49-.18-.07A57.54,57.54,0,0,0,25,16a57.69,57.69,0,0,0-21.18,4.1"/><path class="cls-1" d="M44.3,29.78l-1.54-.56-.5,1.3a44.32,44.32,0,0,0-34.51,0l-.5-1.3-1.54.56L3.35,22.6,4.9,22l-.44-1.51A57.08,57.08,0,0,1,25,16.63a56.93,56.93,0,0,1,20.51,3.91L45.1,22l1.55.56L44.3,29.78"/><path class="cls-3" d="M35.88,25.84l1-5.6,0-.19a1.23,1.23,0,0,0-1-1.22l-6.3-1.07-.44,2.59-.88,5.2,2.87.49.44-2.58,1.78.3,0,.22s-.25,1.49-.26,1.58a.69.69,0,0,0,.13.6.85.85,0,0,0,.5.32l3,.73Zm-1.94-4.42L31.64,21l.07-.4L34,21Z"/><path class="cls-3" d="M14.06,25.7l-1.68-5.18a1.23,1.23,0,0,0-1.55-.79h0L6.1,21.27a1.23,1.23,0,0,0-.85,1.17,1.25,1.25,0,0,0,.06.38L7,28a1.23,1.23,0,0,0,1.55.79h0l4.75-1.55a1.23,1.23,0,0,0,.79-1.55M8.35,23.59l-.13-.38,2.08-.68.13.38ZM9.15,26,9,25.61l2.08-.68.13.38Z"/><path class="cls-3" d="M21,21.72l-.53-2.78A1.23,1.23,0,0,0,19,18l-6.28,1.19,1.19,6.28.16.85.12.63,2.86-.54-.49-2.58L20,23.15a1.23,1.23,0,0,0,1-1.24Zm-5.18-.24-.08-.39L18,20.64l.08.39Z"/><path class="cls-3" d="M19.19,24.55c0,.2.17,2.42.17,2.42l-3,.13,2.45,1.72-1.7,2.53,2.83-.93,1.14,2.75.85-2.92,3.2.82L23,28.67l2.48-2.11-1.71,0,.36-.4h2.34l2.77-4.91V17.72H26.83L25.77,19.6l-.14,1.15-1.2,2.13H24L25,21.2V17.72H22.48l-1,1.88-.13,1.16-2.13,3.8"/><polygon points="27.21 18.37 26.4 19.81 26.26 20.96 24.81 23.53 22.92 23.53 24.33 21.03 24.33 18.37 22.86 18.37 22.09 19.79 21.96 20.96 19.89 24.63 20.24 25.5 21.52 25.5 20.94 26.98 19.85 25.79 19.97 27.53 18.08 27.61 19.59 28.67 18.51 30.27 20.25 29.7 20.96 31.42 21.5 29.55 23.44 30.05 22.19 28.6 23.73 27.34 22.14 27.43 23.86 25.5 26.11 25.5 28.61 21.07 28.61 18.37 27.21 18.37"/><path class="cls-3" d="M44.59,21.85a1.22,1.22,0,0,0-.71-.61L39.15,19.7a1.23,1.23,0,0,0-1.55.79l-1.68,5.18a1.23,1.23,0,0,0,.79,1.55l4.73,1.54A1.23,1.23,0,0,0,43,28l1.68-5.18a1.22,1.22,0,0,0-.07-.94m-3.64,4.1-2.08-.68.13-.38,2.08.68Zm.8-2.41-2.08-.68.13-.38,2.08.68Z"/><polygon class="cls-1" points="27.41 18.76 26.91 19.65 27.59 19.65 28.07 18.76 27.41 18.76"/><polygon class="cls-2" points="27.41 18.76 26.91 19.65 27.59 19.65 28.07 18.76 27.41 18.76"/><polygon class="cls-1" points="23.81 18.76 23.1 18.76 22.6 19.65 23.34 19.65 23.81 18.76"/><polygon class="cls-2" points="23.81 18.76 23.1 18.76 22.6 19.65 23.34 19.65 23.81 18.76"/><path class="cls-1" d="M25.08,23.88h-3.6L23,21.24h-.7l-1.81,3.19h2L21,27.78l-.66-.72.07.9-1,0,.78.55-.56.83.9-.29.37.89.28-1,1,.26-.65-.75.8-.66-1.12.07h-.08l2.32-3.51h2l1.78-3.19h-.69Zm-4.28,4.86a.25.25,0,1,1,.25-.25.25.25,0,0,1-.25.25"/><path class="cls-2" d="M25.08,23.88h-3.6L23,21.24h-.7l-1.81,3.19h2L21,27.78l-.66-.72.07.9-1,0,.78.55-.56.83.9-.29.37.89.28-1,1,.26-.65-.75.8-.66-1.12.07h-.08l2.32-3.51h2l1.78-3.19h-.69Zm-4.28,4.86a.25.25,0,1,1,.25-.25A.25.25,0,0,1,20.79,28.74Z"/><polygon class="cls-1" points="23.15 20.01 22.51 20.01 22.43 20.78 23.09 20.78 23.15 20.01"/><polygon class="cls-2" points="23.15 20.01 22.51 20.01 22.43 20.78 23.09 20.78 23.15 20.01"/><polygon class="cls-1" points="26.72 20.78 27.38 20.78 27.44 20.01 26.8 20.01 26.72 20.78"/><polygon class="cls-2" points="26.72 20.78 27.38 20.78 27.44 20.01 26.8 20.01 26.72 20.78"/><path class="cls-3" d="M8,17.21c.09.33.28.37.71.25l.57-.15c.62-.17.75-.27.63-.68s-.3-.45-1-.25c-.5.14-.56.15-.6,0s0-.14.15-.17L9,16.08c.22-.06.24,0,.27.1l.47-.13v0c-.07-.27-.17-.44-.71-.29l-.66.18c-.59.16-.56.38-.49.66s.2.44.91.25.66-.17.7,0-.07.16-.17.18l-.58.15c-.14,0-.2,0-.25-.12L8,17.1Z"/><path class="cls-3" d="M11.39,16.75l.53-.11.08-.3,1-.2.21.24.53-.11-1.18-1.37L11.9,15Zm.89-1.43.43.52-.61.13Z"/><polygon class="cls-3" points="15.08 16.01 15.56 15.94 15.38 14.8 15.38 14.8 16.46 15.79 17.2 15.67 16.96 14.11 16.48 14.19 16.66 15.32 16.65 15.32 15.57 14.33 14.83 14.45 15.08 16.01"/><path class="cls-3" d="M20.13,15.39l.54,0,.13-.29,1-.05.17.27.54,0-1-1.54-.63,0Zm1.11-1.28.35.58-.62,0Z"/><polygon class="cls-3" points="23.89 15.22 24.38 15.22 24.38 14.07 24.38 14.07 25.29 15.22 26.05 15.22 26.05 13.63 25.56 13.63 25.56 14.78 25.56 14.78 24.64 13.63 23.89 13.63 23.89 15.22"/><polygon class="cls-3" points="27.55 14.05 28.23 14.09 28.17 15.28 28.65 15.3 28.71 14.12 29.4 14.15 29.42 13.76 27.57 13.66 27.55 14.05"/><path class="cls-3" d="M30.79,14.9c0,.46.2.6.63.64l.78.08c.44,0,.71,0,.75-.5l0-.47c0-.46-.2-.6-.63-.64l-.77-.08c-.44,0-.71,0-.75.5l0,.47m.53-.27c0-.2.08-.31.34-.28l.57.06c.25,0,.29.15.27.35l0,.17c0,.23-.08.31-.31.29l-.62-.06c-.23,0-.27-.12-.24-.34Z"/><polygon class="cls-3" points="34.41 15.9 34.89 15.98 35.09 14.85 35.09 14.85 35.79 16.14 36.53 16.27 36.81 14.71 36.33 14.63 36.13 15.76 36.12 15.76 35.42 14.47 34.68 14.34 34.41 15.9"/><rect class="cls-3" x="37.68" y="15.62" width="1.58" height="0.49" transform="matrix(0.21, -0.98, 0.98, 0.21, 14.98, 50.22)"/><path class="cls-3" d="M40.19,16.52c-.12.45.1.62.53.73l.75.2c.42.11.7.08.82-.37l.12-.46c.12-.45-.1-.62-.53-.73l-.75-.2c-.42-.11-.7-.07-.82.37l-.12.46m.57-.18c.05-.19.13-.29.38-.23l.55.15c.25.07.26.19.21.39l0,.16c-.06.22-.13.29-.35.23l-.6-.16c-.22-.06-.25-.16-.19-.38Z"/><path d="M9.34,25.1l-1.8.59a.58.58,0,0,1-.72-.37l-.07-.22-.81-2.49a.57.57,0,0,1,.37-.72L11,20.35a.58.58,0,0,1,.72.37l.45,1.4-1.52.49-.12-.37a.23.23,0,0,0-.29-.15l-2.34.76a.23.23,0,0,0-.15.29l.21.64a.23.23,0,0,0,.29.15l.55-.18,3-1a.58.58,0,0,1,.73.37l.09.27.8,2.48a.58.58,0,0,1-.37.72L8.34,28.16a.58.58,0,0,1-.72-.37l-.47-1.45,1.53-.5.13.41a.23.23,0,0,0,.29.15l2.34-.76a.23.23,0,0,0,.15-.29l-.21-.65a.25.25,0,0,0-.3-.17Zm31.91.17a.25.25,0,0,1,.14.31l-.21.65a.23.23,0,0,1-.29.15l-2.34-.76a.23.23,0,0,1-.15-.29l.13-.41L37,24.43l-.47,1.45a.58.58,0,0,0,.37.73l4.73,1.54a.58.58,0,0,0,.73-.37l.8-2.48.09-.27a.58.58,0,0,0-.37-.73l-3-1-.55-.18a.23.23,0,0,1-.15-.29l.21-.64a.23.23,0,0,1,.29-.15l2.33.76a.23.23,0,0,1,.15.29l-.13.37,1.53.5.45-1.4a.58.58,0,0,0-.37-.72l-4.73-1.54a.58.58,0,0,0-.73.37l-.81,2.49-.07.22a.57.57,0,0,0,.37.72l1.8.59Zm-10-4,2.84.48a.23.23,0,0,0,.27-.19l.11-.66a.23.23,0,0,0-.19-.27l-2.84-.48-.18,1.12m5-1.17a.58.58,0,0,0-.47-.66l-5.66-1L29,25l1.59.27L31,22.71l2,.35.79.13a.23.23,0,0,1,.19.27l-.34,1.95c-.07.41.17.44.27.46l1.36.24a.52.52,0,0,1-.05-.46l.39-2.29a.47.47,0,0,0-.26-.51.49.49,0,0,0,.43-.45l0-.2ZM15.57,21.89l2.83-.54a.23.23,0,0,0,.18-.27l-.13-.66a.23.23,0,0,0-.27-.18l-2.83.54.21,1.11m.75,4-1.58.3-1.23-6.49,5.64-1.07a.58.58,0,0,1,.67.46l.53,2.78a.58.58,0,0,1-.46.67l-4.06.77Z"/></svg>