<svg id="Capa_1" data-name="Capa 1" xmlns="http://www.w3.org/2000/svg" xmlns:xlink="http://www.w3.org/1999/xlink" viewBox="0 0 50 50"><defs><style>.cls-1{fill:none;}.cls-2{fill:#ffb819;}.cls-3{fill:#041e41;}.cls-4{fill:#73243d;}.cls-5{clip-path:url(#clip-path);}.cls-6{clip-path:url(#clip-path-2);}.cls-7{clip-path:url(#clip-path-3);}.cls-8{clip-path:url(#clip-path-4);}.cls-9{clip-path:url(#clip-path-5);}.cls-10{fill:#fff;}.cls-11{clip-path:url(#clip-path-6);}</style><clipPath id="clip-path"><path class="cls-1" d="M17.3,21.61a.68.68,0,0,0,.08-.25l-.08.25m0,.15a11.68,11.68,0,0,0,1.31,9.37,12.88,12.88,0,0,1,.4-7.64c.62-1.52,1.7-2.89,2.13-4.51v0a17.68,17.68,0,0,0-3.85,2.83M22,18.48c-.09.4-.22.83-.37,1.33-.4,1.37-1.68,3.21-2.12,4.57a12.87,12.87,0,0,0,.63,8.74,11.66,11.66,0,0,0,10.55,3.28c-6.49-4.67-7.53-13.21-6.82-18.62a14.83,14.83,0,0,0-1.87.71m2.68-.93c-.66,5.29.49,13.84,7,18.61a11.62,11.62,0,0,0,5.86-3.89c-1-3-4.42-6.5-7.21-9.16-2.55-2.32-3.57-4.29-3.7-5.88a14.1,14.1,0,0,0-1.93.32m3.25-.39h-.41c.17,1.43,1.18,3.25,3.64,5.48,2.75,2.62,6,5.81,7,8.71a11.59,11.59,0,0,0,1.89-7.06q0-.55-.11-1.09a15.74,15.74,0,0,0-12-6h0M17.8,20.26a18.1,18.1,0,0,1,3.48-2.32,2.36,2.36,0,0,0-.38-1.83,11.7,11.7,0,0,0-3.1,4.15m3.75-4.67a4.24,4.24,0,0,1,.56,2,15,15,0,0,1,1.9-.68,11.27,11.27,0,0,1,.91-3,11.58,11.58,0,0,0-3.37,1.72m6,.73a16.66,16.66,0,0,1,12,5.06,11.66,11.66,0,0,0-9.51-8,3.75,3.75,0,0,0-2.51,2.89m.27-3a11.75,11.75,0,0,0-2,.28,9,9,0,0,0-1,3,14.45,14.45,0,0,1,1.8-.29,4.22,4.22,0,0,1,2-3.05h-.14l-.7,0"/></clipPath><clipPath id="clip-path-2"><path class="cls-1" d="M17.38,21.35a.68.68,0,0,1-.08.25l.08-.25m-.55,4.28a11.62,11.62,0,0,1,.43-3.88,17.68,17.68,0,0,1,3.85-2.84v0c-.43,1.63-1.51,3-2.13,4.51a12.88,12.88,0,0,0-.4,7.64,11.58,11.58,0,0,1-1.74-5.49m3.31,7.48a12.87,12.87,0,0,1-.63-8.74c.44-1.35,1.73-3.19,2.12-4.57.15-.5.28-.93.37-1.33a14.87,14.87,0,0,1,1.87-.71c-.71,5.41.33,14,6.82,18.62a11.65,11.65,0,0,1-1.57.2l-.68,0a11.61,11.61,0,0,1-8.3-3.49m4.54-15.57a14.08,14.08,0,0,1,1.93-.32c.14,1.59,1.15,3.56,3.7,5.88,2.8,2.66,6.25,6.18,7.21,9.16a11.62,11.62,0,0,1-5.86,3.89c-6.5-4.76-7.65-13.32-7-18.61m6.48,5.1c-2.46-2.23-3.47-4.05-3.64-5.48A15.66,15.66,0,0,1,40,23.2q.08.54.11,1.09a11.59,11.59,0,0,1-1.89,7.06c-1-2.9-4.27-6.09-7-8.71M20.89,16.11a2.36,2.36,0,0,1,.38,1.83,18.09,18.09,0,0,0-3.48,2.32,11.7,11.7,0,0,1,3.1-4.15m.65-.52a11.58,11.58,0,0,1,3.37-1.72,11.26,11.26,0,0,0-.91,3,15,15,0,0,0-1.9.68,4.24,4.24,0,0,0-.56-2M30,13.43a11.66,11.66,0,0,1,9.51,8,16.66,16.66,0,0,0-12-5.06A3.75,3.75,0,0,1,30,13.43m-4.22.2a11.75,11.75,0,0,1,2-.28c.28,0,.57,0,.85,0a4.22,4.22,0,0,0-2,3.05,14.45,14.45,0,0,0-1.8.29,9,9,0,0,1,1-3m1.92-1.24a12.59,12.59,0,1,0,.74,0l-.74,0"/></clipPath><clipPath id="clip-path-3"><path class="cls-1" d="M40,28.79a11.15,11.15,0,0,0-1.89,1.6.56.56,0,0,0,.09.45,3.41,3.41,0,0,0,.22.33.61.61,0,0,1,.14-.36,4.6,4.6,0,0,1,3.76-1.91,5.67,5.67,0,0,0-3.58,2.39c-.11.12-.19.14-.25.1,0,.2-.15.46-.33.49a5.36,5.36,0,0,0-.94.64v.36L37.3,34a3.38,3.38,0,0,0,.4,1.14,3.48,3.48,0,0,0,2.22,1.54,18.1,18.1,0,0,1,.45-3.78A4.49,4.49,0,0,1,42,30.65c.78-.42,2-.83,2.6-1.16a2.88,2.88,0,0,0,.9-.69,22.43,22.43,0,0,1-2.32-.23,8.82,8.82,0,0,0-1.43-.13,3.65,3.65,0,0,0-1.74.35"/></clipPath><clipPath id="clip-path-4"><path class="cls-1" d="M8.47,27.18c.72-.58,1.45-1.11,2.18-1.6l3.52,1-.17.17c-7.83,8.17-2.68,9.54,3,6.4a10.38,10.38,0,0,1-.81.8C9.87,40.14,3,35.45,11.4,26.51c-.9.25-2.71.67-2.92.67h0m17.16-3.92h0M13.38,24c5.26-2.65,10.15-2.78,12.25-.73-.08,0-4.14,2.37-4.56,2.69,2-3.94-1.61-3-4.63-1.15ZM37,28.29c4.56-.68,9.44-1.82,7.71-4.42a5,5,0,0,1-.76-.74c-1.13-1.51.8-3.25,3-3.1a3.07,3.07,0,0,1,.53.08l-.53,1.35c-.44-.7-1.85-.86-2,0-.14.63.86.86,1.44,2a2.74,2.74,0,0,1-1.47,3.75,13.87,13.87,0,0,1-1.72.74l-1.61.44a17.53,17.53,0,0,1-2.93.61c-3.71.56-7.63.74-10.9,2.27,1.42-1.46,5.18-2.29,9.32-2.93m-11.22-7c-4.48-2-9.94-.42-14.22,2.11l-3.3-.83c-3-.77-5.63-1.43-8.23-.84C2,23.5,4.61,24.2,7.61,25l1.16.3A18.66,18.66,0,0,0,5.89,28l-.75.91,2.7-.43c-6.24,9.85,4,13.52,10.93,4.9l7.17-1.88a6.25,6.25,0,0,0-1,3.29l.43-.33A15,15,0,0,1,32,31.36l4.6,1.2a.24.24,0,0,0,0,.08c-.16,2.53,1,4.25,3.62,4.67l.46.09a10.71,10.71,0,0,1,0-1.51,4.54,4.54,0,0,0,6-.41l.14.33c1.94.48,2.9-2.8,2.75-3.53a4.69,4.69,0,0,0-2.18.22L42.43,31.2c.89-.67,3.87-1.41,3.91-3,0,0,0,0,0-.07,1.6-1.27,2.16-3.05,1.61-5.5L50,17.55,43.85,19l.8-2.39Z"/></clipPath><clipPath id="clip-path-5"><path class="cls-1" d="M38.38,30.67a1,1,0,0,1,.35.87c0,.48-.31.85-.63.86v0h0a2.89,2.89,0,0,0,.64,1.77,5.15,5.15,0,0,1,2.66-4,6.58,6.58,0,0,0-2.08,5.52c-.87-.17-1.59-1.63-1.84-2.4.2,1.31,1,2.88,2.27,3-.26-2.52.72-5.14,2.37-6A23.11,23.11,0,0,0,44.8,29a13.79,13.79,0,0,1-1.88-.27,5.25,5.25,0,0,0-.91-.08,4.29,4.29,0,0,0-3.63,2"/></clipPath><clipPath id="clip-path-6"><path class="cls-1" d="M25.7,21.8c-4.19-1.91-9.37-.58-13.54,1.76l8.1,2a2.12,2.12,0,0,1-.12.3L16.57,27l-.46.22L9.32,25.42a18.48,18.48,0,0,0-3.08,2.9L8.67,28C1.73,39.11,13,40.52,18.26,33l8.81-2.21a6.29,6.29,0,0,0-1.53,2.95,14.25,14.25,0,0,1,8.05-3.1c1.24-.09,2.61-.23,3.67-.34l.3-.38a5.27,5.27,0,0,1,3.86-2.12,5.41,5.41,0,0,1,2.05.14,9.31,9.31,0,0,0,1.86.31c2.14-1.25,2.77-3.05,2.15-5.67l1.66-4.42s-4.19,1-6,1.45l.8-2.39Z"/></clipPath></defs><path class="cls-2" d="M15.25,25.72a13.22,13.22,0,1,1,14,12.44,13.22,13.22,0,0,1-14-12.44"/><path class="cls-3" d="M41,24.24a12.6,12.6,0,1,1-13.3-11.85A12.6,12.6,0,0,1,41,24.24"/><path class="cls-4" d="M30,13.43a11.66,11.66,0,0,1,9.51,8,16.66,16.66,0,0,0-12-5.06A3.75,3.75,0,0,1,30,13.43m-4.22.2a11.8,11.8,0,0,1,2-.28c.28,0,.57,0,.85,0a4.22,4.22,0,0,0-2,3.05,14.32,14.32,0,0,0-1.8.29,9,9,0,0,1,1-3m-4.26,2a11.57,11.57,0,0,1,3.37-1.72,11.28,11.28,0,0,0-.91,3,15.2,15.2,0,0,0-1.9.68,4.24,4.24,0,0,0-.56-2M17.8,20.26a11.7,11.7,0,0,1,3.1-4.15,2.35,2.35,0,0,1,.38,1.83,18.1,18.1,0,0,0-3.48,2.32m-.5,1.35.08-.25a.69.69,0,0,1-.08.25m1.27,9.52a11.68,11.68,0,0,1-1.31-9.37,17.68,17.68,0,0,1,3.85-2.83v0c-.43,1.63-1.51,3-2.13,4.51a12.89,12.89,0,0,0-.4,7.64m12.12,5.27a11.75,11.75,0,0,1-1.57.2,11.62,11.62,0,0,1-9-3.47,12.88,12.88,0,0,1-.63-8.74c.44-1.35,1.73-3.19,2.12-4.57.15-.5.28-.93.37-1.33a14.78,14.78,0,0,1,1.87-.71c-.71,5.42.33,14,6.82,18.62m6.83-4.13a11.62,11.62,0,0,1-5.86,3.89c-6.5-4.76-7.65-13.32-7-18.61a14.08,14.08,0,0,1,1.93-.32c.14,1.59,1.15,3.56,3.7,5.88,2.8,2.66,6.25,6.18,7.22,9.16m2.55-8a11.6,11.6,0,0,1-1.89,7.06c-1-2.9-4.27-6.09-7-8.71-2.46-2.23-3.47-4.05-3.64-5.48A15.67,15.67,0,0,1,40,23.2q.08.54.11,1.09"/><path class="cls-2" d="M47.29,32.51,42.43,31.2c.89-.67,3.87-1.41,3.91-3,0,0,0,0,0-.07,1.6-1.27,2.16-3.05,1.61-5.5L50,17.55,43.85,19l.8-2.39-18.9,4.65c-4.48-2-9.94-.42-14.22,2.11l-3.3-.83c-3-.77-5.63-1.43-8.23-.84C2,23.5,4.61,24.2,7.61,25l1.16.3A18.68,18.68,0,0,0,5.89,28l-.75.91,2.7-.43c-6.24,9.85,4,13.52,10.93,4.9l7.17-1.88a6.25,6.25,0,0,0-1,3.29l.43-.33A15,15,0,0,1,32,31.36l4.6,1.2a.26.26,0,0,0,0,.08c-.16,2.53,1,4.25,3.62,4.67l.46.09a10.7,10.7,0,0,1,0-1.51,4.54,4.54,0,0,0,6-.41l.14.33c1.94.48,2.9-2.8,2.75-3.53a4.68,4.68,0,0,0-2.18.22"/><g class="cls-5"><path class="cls-2" d="M47.29,32.51,42.43,31.2c.89-.67,3.87-1.41,3.91-3,0,0,0,0,0-.07,1.6-1.27,2.16-3.05,1.61-5.5L50,17.55,43.85,19l.8-2.39-18.9,4.65c-4.48-2-9.94-.42-14.22,2.11l-3.3-.83c-3-.77-5.63-1.43-8.23-.84C2,23.5,4.61,24.2,7.61,25l1.16.3A18.68,18.68,0,0,0,5.89,28l-.75.91,2.7-.43c-6.24,9.85,4,13.52,10.93,4.9l7.17-1.88a6.25,6.25,0,0,0-1,3.29l.43-.33A15,15,0,0,1,32,31.36l4.6,1.2a.26.26,0,0,0,0,.08c-.16,2.53,1,4.25,3.62,4.67l.46.09a10.7,10.7,0,0,1,0-1.51,4.54,4.54,0,0,0,6-.41l.14.33c1.94.48,2.9-2.8,2.75-3.53a4.68,4.68,0,0,0-2.18.22"/></g><g class="cls-6"><path class="cls-2" d="M47.29,32.51,42.43,31.2c.89-.67,3.87-1.41,3.91-3,0,0,0,0,0-.07,1.6-1.27,2.16-3.05,1.61-5.5L50,17.55,43.85,19l.8-2.39-18.9,4.65c-4.48-2-9.94-.42-14.22,2.11l-3.3-.83c-3-.77-5.63-1.43-8.23-.84C2,23.5,4.61,24.2,7.61,25l1.16.3A18.68,18.68,0,0,0,5.89,28l-.75.91,2.7-.43c-6.24,9.85,4,13.52,10.93,4.9l7.17-1.88a6.25,6.25,0,0,0-1,3.29l.43-.33A15,15,0,0,1,32,31.36l4.6,1.2a.26.26,0,0,0,0,.08c-.16,2.53,1,4.25,3.62,4.67l.46.09a10.7,10.7,0,0,1,0-1.51,4.54,4.54,0,0,0,6-.41l.14.33c1.94.48,2.9-2.8,2.75-3.53a4.68,4.68,0,0,0-2.18.22"/></g><path class="cls-3" d="M49.16,32.69a2.82,2.82,0,0,0-1.8.25l-5.09-1.37-.72-.19a5.45,5.45,0,0,1,2.25-1.29,7.94,7.94,0,0,0,1.32-.65c.72-.5.82-.83.82-.83a10.51,10.51,0,0,1-2.76-.36,5.4,5.4,0,0,0-1.7-.08h-.06a5.11,5.11,0,0,0-3.61,2.12l-.13.16-.25.29.44.11c.3.05.13.71-.27.6L35.68,31l-2.05.16c-.27,0-.57.05-.89.1L37,32.35c-.3,2.77,1.18,4.47,3.28,4.64,0-.28,0-.88,0-1.93,0,0,3,3.24,6.47-.24a5.39,5.39,0,0,1,.29.66c1.52.18,2.19-2.77,2.14-2.77"/><g class="cls-7"><path class="cls-2" d="M42.92,28.78a4.33,4.33,0,0,0-4.54,1.9,1,1,0,0,1,.35.87c0,.48-.31.85-.63.86v0h0a2.89,2.89,0,0,0,.64,1.77,5.14,5.14,0,0,1,2.66-4,6.58,6.58,0,0,0-2.08,5.52c-.86-.17-1.59-1.63-1.84-2.4.2,1.31,1,2.88,2.27,3-.26-2.52.72-5.14,2.37-6A23.27,23.27,0,0,0,44.8,29a13.87,13.87,0,0,1-1.88-.27"/></g><path class="cls-3" d="M49.13,18.21s-4.19,1-6,1.45l.8-2.39L25.7,21.8c-4.19-1.91-9.37-.58-13.54,1.76l8.1,2a2,2,0,0,1-.12.3L7.85,22.8C5.35,22.15,3.1,21.54.95,22c1.68,1.41,3.95,2,6.45,2.6L16.57,27l-.46.22L9.32,25.42a18.51,18.51,0,0,0-3.08,2.9L8.67,28C1.73,39.11,13,40.52,18.26,33l8.81-2.21a6.29,6.29,0,0,0-1.53,2.95,14.25,14.25,0,0,1,8.05-3.1c1.24-.09,2.61-.23,3.67-.34l.3-.38a5.27,5.27,0,0,1,3.86-2.12,5.42,5.42,0,0,1,2.05.14,9.31,9.31,0,0,0,1.86.31c2.14-1.25,2.77-3.05,2.15-5.67ZM18.3,26.43,9.18,24.05c-2.6-.72-3.28-1.3-3.45-1.45L11,24l8.61,2.21c-.39.09-1,.19-1.34.25"/><g class="cls-8"><path class="cls-3" d="M49.13,18.21s-4.19,1-6,1.45l.8-2.39L25.7,21.8c-4.19-1.91-9.37-.58-13.54,1.76l8.1,2a2,2,0,0,1-.12.3L7.85,22.8C5.35,22.15,3.1,21.54.95,22c1.68,1.41,3.95,2,6.45,2.6L16.57,27l-.46.22L9.32,25.42a18.51,18.51,0,0,0-3.08,2.9L8.67,28C1.73,39.11,13,40.52,18.26,33l8.81-2.21a6.29,6.29,0,0,0-1.53,2.95,14.25,14.25,0,0,1,8.05-3.1c1.24-.09,2.61-.23,3.67-.34l.3-.38a5.27,5.27,0,0,1,3.86-2.12,5.42,5.42,0,0,1,2.05.14,9.31,9.31,0,0,0,1.86.31c2.14-1.25,2.77-3.05,2.15-5.67ZM18.3,26.43,9.18,24.05c-2.6-.72-3.28-1.3-3.45-1.45L11,24l8.61,2.21c-.39.09-1,.19-1.34.25"/></g><path class="cls-2" d="M47.56,33.31A3.92,3.92,0,0,1,48.75,33a3.66,3.66,0,0,0-.88.53,1.36,1.36,0,0,1-.84,1,2.21,2.21,0,0,0,.53-1.22"/><path class="cls-2" d="M40.43,33.91c.77,1.69,3,2.09,4.38,1.81-.61.53-3.56.41-4.45-1.32Z"/><path class="cls-2" d="M41.26,31.75l5.83,1.51c.19,0,.11.58-.14.52l-6-1.53a1.61,1.61,0,0,1,.3-.5"/><path class="cls-2" d="M46.23,34.33c-2.11,2.08-5.41.65-5.39-1a7.79,7.79,0,0,0,5.39,1"/><g class="cls-9"><path class="cls-10" d="M38.55,30.81c-.26.32-.13.83.19.48a5.67,5.67,0,0,1,3.58-2.39,4.6,4.6,0,0,0-3.76,1.91"/></g><path class="cls-10" d="M32,21.19l.39-.09,0,1,.77-1.17.52-.14-1.52,2Zm10-2.35H42l-.31.07-.57,1.44.24-.06.12,0,.09,0,.54-1.34-.06,0m-.72,1.64-.78.19.73-1.85.78-.19a1,1,0,0,1,.37,0c.12,0,.19,0,.17.1l-.53,1.36a.7.7,0,0,1-.3.22,1.93,1.93,0,0,1-.44.18M27.11,24a1.59,1.59,0,0,1-.38,0c-.17,0-.26,0-.23-.11l.55-1.4a.72.72,0,0,1,.29-.22,2,2,0,0,1,.44-.18l.77-.19-.13.33-.47.12.06-.13-.13,0-.28.09c-.05,0-.07,0-.07.05L27,23.84s0,0,.08,0h.13a.64.64,0,0,0,.18-.07c.06,0,.09-.07.1-.1l0-.06.52-.13-.06.15c0,.07-.16.16-.36.25a2.57,2.57,0,0,1-.45.17m2-2.15.48-.12-.64,1.64.78-.19-.08.2-1.26.31Zm1.63-.41,1.09-.27-.08.2-.61.15-.22.56.61-.15-.08.2-.61.15-.27.69.61-.15-.08.2L30,23.32Zm3.4-.84,1.09-.27-.08.2-.61.15-.22.56.61-.15-.08.2-.61.15-.27.68.61-.15-.08.2-1.09.27Zm1.54-.4.48-.12-.64,1.64.78-.19-.08.2-1.26.31Zm2.14.49-.45.11-.27.7-.49.12L37.23,20c0-.08.16-.17.35-.26a2.38,2.38,0,0,1,.46-.17,1.38,1.38,0,0,1,.41,0c.14,0,.22,0,.19.11L38,21.31l-.48.12Zm.35-.92H38l-.17.07-.08,0-.29.72.45-.11.28-.71Zm1.55.56-.19-.72L39,21.07l-.48.12.72-1.85.48-.12.16.64.3-.75L40.7,19,40,20.84l-.48.12Z"/><path class="cls-10" d="M22,26.37l.75.46a12.7,12.7,0,0,1-3,4.14l1.68-4.46-1.29.34L18,32.22l2.7-.69a12.86,12.86,0,0,0,3.79-5.79Z"/><path class="cls-10" d="M14.19,31.09s-1,2-1.18,2.41l1.34-.35.9-1.87L16.33,31l-.75,1.88L17,32.48,19.2,27a6.22,6.22,0,0,0-5,4m2.5-.87-1.06.3s.88-1.73,1.79-2Z"/><path class="cls-10" d="M41.25,24.34a1.27,1.27,0,0,1-.13-.33l.14-.07A4.06,4.06,0,0,0,43,21c-1.22.33-3.27.86-3.28.87l-2,5.38,1.27-.33.84-2.31c.1.22.66,1.55,1.75,1.66a2.3,2.3,0,0,0,2-1.12,1.84,1.84,0,0,1-2.41-.77m-1-.51.62-1.72,1-.26a3.15,3.15,0,0,1-1.59,2"/><path class="cls-10" d="M23.85,28.64s-1,2-1.17,2.38L24,30.67l.88-1.84L26,28.51l-.74,1.86L26.66,30l2.19-5.4a6.16,6.16,0,0,0-5,4m2.5-.87-1.06.3s.88-1.73,1.79-2Z"/><polygon class="cls-10" points="33.73 23.32 31.63 28.73 32.97 28.39 35.07 22.98 33.73 23.32"/><path class="cls-10" d="M35.17,27.19l.67-1.58,1.84-1-1.48.11L36.85,23a1.19,1.19,0,0,1,1.56.5L39,22l-3.25.83-2.09,5.4L37,27.36l.71-1.67a4.41,4.41,0,0,1-2.54,1.5"/><path class="cls-10" d="M29.22,28.71,31,24l-1.41.36L27.5,29.8l3.57-.92L31.85,27a3.85,3.85,0,0,1-2.63,1.75"/><g class="cls-11"><path class="cls-10" d="M47.4,20.12l-.53,1.36c-.44-.7-1.85-.86-2,0-.14.63.86.86,1.44,2a2.74,2.74,0,0,1-1.47,3.75,14,14,0,0,1-1.72.74l-1.61.44a17.51,17.51,0,0,1-2.93.61c-3.71.56-7.63.74-10.9,2.27,1.42-1.46,5.18-2.29,9.32-2.93,4.56-.68,9.44-1.82,7.71-4.42a5,5,0,0,1-.76-.74c-1.13-1.51.8-3.25,3-3.1a3.09,3.09,0,0,1,.53.08"/></g><g class="cls-11"><path class="cls-10" d="M25.63,23.25c0-.07-4.14,2.37-4.56,2.69,2.63-5.15-4.39-2-7.07.77-7.83,8.17-2.68,9.54,3,6.4a10.28,10.28,0,0,1-.81.8C9.87,40.14,3,35.45,11.4,26.51a27,27,0,0,1-2.94.67c6.88-5.55,14.42-6.61,17.17-3.92"/></g></svg>