<svg id="Capa_1" data-name="Capa 1" xmlns="http://www.w3.org/2000/svg" viewBox="0 0 50 50"><defs><style>.cls-1{fill:#0b579e}.cls-2{fill:#f9bc13}.cls-3{fill:#feffff}.cls-4{fill:#80855c}.cls-5{fill:#e53351}.cls-6{fill:#87acce}</style></defs><path class="cls-1" d="M24.65 1h.72v.47a4.33 4.33 0 0 1 .55.05 4.1 4.1 0 0 1 0 .7h-.55v.38a4.69 4.69 0 0 1 .56.35 1 1 0 0 1 .9.35 1 1 0 0 1 .72-.11 1.07 1.07 0 0 1 .54.47.87.87 0 0 1 1.22.69 1 1 0 0 1 .79.16 1 1 0 0 1 .3.77 2.61 2.61 0 0 1 .56.2.91.91 0 0 1 .76-.27 1 1 0 0 1 .63.5.87.87 0 0 1 1.21.72.86.86 0 0 1 .84.27 1 1 0 0 1 .19.7 1 1 0 0 1 .72.38.91.91 0 0 1 .09.79 1 1 0 0 1 .56.55.93.93 0 0 1-.14.79 1.18 1.18 0 0 1 .44.51 1.51 1.51 0 0 1 0 .6 1.11 1.11 0 0 1 .25.49 1.34 1.34 0 0 1-.11.6 1.1 1.1 0 0 1 .11.54 1.14 1.14 0 0 1-.89.91c-.26.06-.54-.15-.79 0a1.58 1.58 0 0 1-.87.14 1.11 1.11 0 0 1-.2.41 1.63 1.63 0 0 1-.35.14.71.71 0 0 1-.23.43l.1.46-.46.25c0 .15 0 .33-.1.44s-.39 0-.57-.1a17.5 17.5 0 0 0-14.34 0 .74.74 0 0 1-.53.11c-.16-.09-.12-.3-.13-.46l-.46-.25.11-.46a.88.88 0 0 1-.24-.41 1.46 1.46 0 0 1-.35-.16.91.91 0 0 1-.17-.42 1.59 1.59 0 0 1-1.04-.2 1.19 1.19 0 0 1-.63.09 1.17 1.17 0 0 1-.88-.86 1 1 0 0 1 .12-.6 1.23 1.23 0 0 1-.12-.59 1.14 1.14 0 0 1 .26-.5 1.06 1.06 0 0 1 0-.62 1.12 1.12 0 0 1 .43-.48 1 1 0 0 1-.18-.74 1 1 0 0 1 .57-.6.92.92 0 0 1 .08-.78 1 1 0 0 1 .73-.39 1 1 0 0 1 .18-.69.85.85 0 0 1 .85-.27 1 1 0 0 1 .4-.66 1 1 0 0 1 .81-.06 1 1 0 0 1 .62-.5.89.89 0 0 1 .77.26 3.28 3.28 0 0 1 .56-.21 1 1 0 0 1 .33-.78 1 1 0 0 1 .77-.14 1 1 0 0 1 .42-.65 1 1 0 0 1 .8 0 1 1 0 0 1 .59-.48 1 1 0 0 1 .67.13 1 1 0 0 1 .9-.35 4.92 4.92 0 0 1 .57-.35v-.38h-.55v-.71h.55v-.48z"/><path class="cls-2" d="M24.8 1.16h.42c0 .16-.07.39.08.49s.32 0 .48 0v.37h-.56v.63a3.11 3.11 0 0 1 .66.43 1.13 1.13 0 0 1 .51 0 1.05 1.05 0 0 1 .4.38.7.7 0 0 1 1.21.43.87.87 0 0 1 .81-.05.79.79 0 0 1 .35.75.82.82 0 0 1 .84 0 .79.79 0 0 1 .2.84 1.07 1.07 0 0 1 .79.24.75.75 0 0 1 .73-.33c.29 0 .45.32.56.57a.71.71 0 0 1 1.12.69c.28 0 .61-.11.83.11a.77.77 0 0 1 .14.85.82.82 0 0 1 .8.26.81.81 0 0 1 0 .84.77.77 0 0 1 .65.55.81.81 0 0 1-.29.73c.21.11.47.22.56.47s0 .42 0 .62.3.31.29.53a1.11 1.11 0 0 1-.17.55c.43.46 0 1.16-.57 1.26a1.37 1.37 0 0 1-.63-.09 4.2 4.2 0 0 1-.5.22 2.59 2.59 0 0 1-.75 0c0 .16.07.38-.09.49s-.49 0-.7-.1a19.53 19.53 0 0 0-16.16.11.37.37 0 0 1-.46 0c-.15-.12-.08-.32-.09-.49a2.69 2.69 0 0 1-.69 0 3.49 3.49 0 0 1-.56-.23 1.12 1.12 0 0 1-.73.06 1 1 0 0 1-.64-.8c0-.17.1-.3.18-.44a1 1 0 0 1-.17-.61.88.88 0 0 1 .3-.45.86.86 0 0 1 0-.66c.08-.23.33-.31.53-.43-.13-.2-.32-.4-.27-.66s.34-.56.65-.63a.8.8 0 0 1 0-.82.8.8 0 0 1 .81-.27.79.79 0 0 1 .11-.81c.21-.27.57-.2.87-.15a.8.8 0 0 1 .31-.72.77.77 0 0 1 .8 0c.12-.26.29-.55.61-.57s.5.15.69.32a1.13 1.13 0 0 1 .79-.24.78.78 0 0 1 .15-.79c.25-.2.57-.09.84 0a.74.74 0 0 1 .27-.71.83.83 0 0 1 .86 0 .77.77 0 0 1 .56-.56.83.83 0 0 1 .65.21 1.19 1.19 0 0 1 .4-.38 1.1 1.1 0 0 1 .52 0 2.55 2.55 0 0 1 .66-.41 5.58 5.58 0 0 0 0-.65 1.72 1.72 0 0 1-.51-.11v-.36h.54v-.5z"/><path class="cls-1" d="M23.8 3.31a.47.47 0 1 1-.33.73.46.46 0 0 1 .33-.73zM26.06 3.31a.47.47 0 1 1-.3.7.47.47 0 0 1 .3-.7zM22.5 3.55a.48.48 0 0 1 .65.36c0 .2-.12.36-.23.51h-.4c-.22 0-.27-.26-.34-.43.08-.16.14-.36.32-.42z"/><path class="cls-3" d="M23.65 3.48a.36.36 0 1 1 .06.61.35.35 0 0 1-.06-.61zM26 3.47a.36.36 0 0 1 .55.29.36.36 0 1 1-.55-.29z"/><path class="cls-1" d="M27.25 3.52a.47.47 0 1 1-.27.77.47.47 0 0 1 .27-.77z"/><path class="cls-3" d="M22.45 3.71a.35.35 0 1 1 .08.59.35.35 0 0 1-.08-.59zM27.16 3.67a.36.36 0 1 1 0 .6.35.35 0 0 1 0-.6z"/><path class="cls-1" d="M28.39 3.95a.47.47 0 1 1-.3.7.47.47 0 0 1 .3-.7zM21.31 4a.47.47 0 1 1-.14.73.46.46 0 0 1 .14-.73z"/><path class="cls-3" d="M21.39 4.07a.36.36 0 1 1-.11.6.35.35 0 0 1 .11-.6zM28.38 4.07a.35.35 0 1 1-.11.62.35.35 0 0 1 .11-.62z"/><path class="cls-4" d="M22.52 4.39h.31c0 .13-.32.12-.31 0z"/><path class="cls-1" d="M24.86 4.44a.48.48 0 0 1 .59.58.47.47 0 0 1-.77.21.48.48 0 0 1 .18-.79z"/><path class="cls-3" d="M24.86 4.57a.36.36 0 0 1 .5.31.35.35 0 0 1-.52.33.36.36 0 0 1 0-.65z"/><path class="cls-1" d="M20.25 4.7a.47.47 0 0 1 .58.65.47.47 0 1 1-.58-.65zM21.12 5.84a4.12 4.12 0 0 1 3.31-1.08 3.78 3.78 0 0 1 .14.9c0 .2-.1.37-.12.57a2.4 2.4 0 0 1 .12.7c0 .24-.14.47-.11.72s.27.32.37.5a1.79 1.79 0 0 0-.47.23 1.43 1.43 0 0 0-.2.41c-.19.08-.43.14-.51.36a1 1 0 0 0 0 .89c.17.26.51.27.79.31a.8.8 0 0 1-1.44.41c-.2-.21 0-.53-.16-.76a.65.65 0 0 0-1.2.51.74.74 0 0 1-.74.93.82.82 0 0 1-.76-.54c.27-.1.6-.2.7-.51a1.05 1.05 0 0 0-.19-.87c-.14-.18-.38-.19-.58-.23a3.26 3.26 0 0 0-.43-.45 4.76 4.76 0 0 1 1.44-3zM25.59 4.76a4.11 4.11 0 0 1 3.34 1.11 4.89 4.89 0 0 1 1.42 3 2 2 0 0 0-.44.44c-.2 0-.45 0-.58.23a1 1 0 0 0-.19.86c.1.3.43.4.69.5a.8.8 0 0 1-1.55-.15c0-.17.08-.32.09-.49a.65.65 0 0 0-1.28-.15c-.07.2 0 .44-.1.62a.8.8 0 0 1-1.22.14.89.89 0 0 1-.25-.51c.26 0 .58 0 .76-.26a1 1 0 0 0 .1-.9c-.08-.24-.32-.32-.53-.4a.94.94 0 0 0-.25-.45 2.36 2.36 0 0 0-.45-.2c.19-.17.46-.35.41-.64a2.23 2.23 0 0 1-.1-.71c0-.26.17-.5.06-.76a2.4 2.4 0 0 1 .06-1.27zM29.44 4.7a.48.48 0 0 1 .61.6.47.47 0 0 1-.75.19.47.47 0 0 1 .14-.79z"/><path class="cls-3" d="M20.25 4.83a.36.36 0 1 1 0 .62.36.36 0 0 1 0-.62zM29.43 4.83a.36.36 0 1 1 0 .62.36.36 0 0 1 0-.62zM22.34 5.23a4.23 4.23 0 0 1 1.94-.33 1.83 1.83 0 0 1 .06 1.1c-.13.32.09.63.06 1a7.75 7.75 0 0 0-4.23.61 4.17 4.17 0 0 1 2.17-2.31zM25.74 4.9a4 4 0 0 1 2.6.7 4.21 4.21 0 0 1 1.5 1.93 7.76 7.76 0 0 0-4.24-.61 2 2 0 0 1 .1-.56c.09-.26-.12-.51-.09-.77a2 2 0 0 1 .13-.68z"/><path class="cls-1" d="M18.3 5.57a.47.47 0 1 1-.23.77.47.47 0 0 1 .23-.77zM31.5 5.57a.47.47 0 1 1-.19.8.47.47 0 0 1 .19-.8z"/><path class="cls-3" d="M18.28 5.69a.36.36 0 0 1 .48.39.35.35 0 0 1-.49.27.36.36 0 0 1 0-.66z"/><path class="cls-1" d="M19.41 5.68a.47.47 0 1 1-.14.8.47.47 0 0 1 .14-.8zM30.28 5.69a.47.47 0 1 1-.09.82.47.47 0 0 1 .09-.82z"/><path class="cls-3" d="M31.61 5.67a.36.36 0 0 1 .31.53.35.35 0 0 1-.58.08.36.36 0 0 1 .27-.6z"/><path class="cls-1" d="M24.85 5.77a.47.47 0 1 1-.11.82.47.47 0 0 1 .11-.82z"/><path class="cls-3" d="M19.4 5.81a.36.36 0 1 1 0 .6.36.36 0 0 1 0-.6zM30.27 5.81a.36.36 0 1 1 0 .59.36.36 0 0 1 0-.59zM24.84 5.89a.36.36 0 1 1 .06.65.36.36 0 0 1-.06-.65z"/><path class="cls-1" d="M17.08 6a.47.47 0 1 1 0 .83.47.47 0 0 1 0-.83zM32.54 6.05a.47.47 0 1 1 0 .82.46.46 0 0 1 0-.82z"/><path class="cls-3" d="M17.08 6.17a.35.35 0 1 1 0 .61.35.35 0 0 1 0-.61zM32.54 6.18a.36.36 0 1 1 .18.65.36.36 0 0 1-.18-.65z"/><path class="cls-1" d="M33.7 6.78a.48.48 0 0 1 .57.5.47.47 0 0 1-.78.3.48.48 0 0 1 .21-.81zM16 6.81a.47.47 0 1 1-.07.81.47.47 0 0 1 .07-.81zM18.79 6.84a.47.47 0 1 1-.13.75.47.47 0 0 1 .13-.75zM30.85 6.82a.47.47 0 1 1-.18.75.48.48 0 0 1 .18-.75z"/><path class="cls-3" d="M16.1 6.9a.36.36 0 0 1 .45.46.35.35 0 0 1-.53.19.36.36 0 0 1 .07-.64zM18.84 6.95a.36.36 0 0 1 .51.4.36.36 0 0 1-.61.16.35.35 0 0 1 .1-.56z"/><path class="cls-5" d="M20.09 7.7A7.12 7.12 0 0 1 24.4 7a1.75 1.75 0 0 0-.1.58 1 1 0 0 0 .23.45 1.08 1.08 0 0 0-.51.58.86.86 0 0 0-.53.46 1.17 1.17 0 0 0 .09 1 1.18 1.18 0 0 0 .74.36c-.15.21-.34.44-.63.42a.75.75 0 0 1-.6-.39 1 1 0 0 0-.14-.75.81.81 0 0 0-1.46.46c0 .17.07.32.08.49a.64.64 0 0 1-.69.53.78.78 0 0 1-.48-.19c.26-.12.56-.27.64-.58a1.23 1.23 0 0 0-.24-1 .92.92 0 0 0-.59-.27 5.07 5.07 0 0 0-.36-.37 7 7 0 0 1 .24-1.06z"/><path class="cls-3" d="M30.9 6.92a.36.36 0 1 1-.12.61.36.36 0 0 1 .12-.61zM33.6 6.95a.36.36 0 1 1 0 .56.36.36 0 0 1 0-.56z"/><path class="cls-1" d="M24.94 7.06a.47.47 0 0 1 .5.64.46.46 0 0 1-.76.16.48.48 0 0 1 .26-.8z"/><path class="cls-5" d="M25.6 7a7.17 7.17 0 0 1 4.31.65 6.15 6.15 0 0 1 .25 1.07c-.13.12-.25.24-.36.36a.9.9 0 0 0-.6.28 1.22 1.22 0 0 0-.21 1c.09.29.39.42.63.56a.92.92 0 0 1-.57.26.59.59 0 0 1-.57-.75.8.8 0 0 0-.21-.83.82.82 0 0 0-1.27.2c-.17.25 0 .62-.22.83a.62.62 0 0 1-.74.14 1 1 0 0 1-.34-.36 1.16 1.16 0 0 0 .72-.34 1.15 1.15 0 0 0 .1-1 .87.87 0 0 0-.52-.41 1 1 0 0 0-.51-.58 1 1 0 0 0 .24-.46A1.51 1.51 0 0 0 25.6 7z"/><path class="cls-1" d="M16.49 8.34a5.57 5.57 0 0 1 1.84-1.25 1 1 0 0 0 .32.78 1.59 1.59 0 0 0-.45.27 1.38 1.38 0 0 0-.18.42.9.9 0 0 0 .55.68 4.36 4.36 0 0 0-.09.48 1.07 1.07 0 0 0-.38.37 1 1 0 0 0 .32 1 1.12 1.12 0 0 0 .78 0 .82.82 0 0 1-1.44.65.69.69 0 0 0-.63-.69.63.63 0 0 0-.7.62c0 .27.26.48.16.75a.8.8 0 0 1-1.16.54c.21-.18.51-.33.52-.64a1 1 0 0 0-.56-1 4.74 4.74 0 0 1 1.09-3.08zM31.38 7.87a1.35 1.35 0 0 0 .34-.79 5 5 0 0 1 2.35 2 5.33 5.33 0 0 1 .53 2.3 1.15 1.15 0 0 0-.55 1c0 .31.32.46.53.64a.81.81 0 0 1-1.18-.78.7.7 0 0 0 .08-.84.66.66 0 0 0-1.16.13.7.7 0 0 1-.88.54.8.8 0 0 1-.61-.93 1 1 0 0 0 .77 0c.26-.17.31-.5.37-.79a.92.92 0 0 0-.45-.61c0-.16 0-.31-.07-.46a.75.75 0 0 0 .5-.82c-.05-.3-.33-.44-.58-.55z"/><path class="cls-3" d="M24.83 7.21a.36.36 0 1 1 0 .63.36.36 0 0 1 0-.63zM16 9.3a4.23 4.23 0 0 1 2.13-2 2.44 2.44 0 0 0 .19.46 1.28 1.28 0 0 0-.35.3 2.35 2.35 0 0 0-.18.52A5.43 5.43 0 0 0 16 9.3zM31.65 7.8c.08-.15.15-.31.21-.48a4.58 4.58 0 0 1 2.11 2 5.67 5.67 0 0 0-1.81-.65 1 1 0 0 0-.5-.83z"/><path class="cls-1" d="M15.18 7.81a.47.47 0 0 1 .62.59.47.47 0 1 1-.62-.59zM34.51 7.81a.47.47 0 1 1-.15.8.47.47 0 0 1 .15-.8z"/><path class="cls-3" d="M15.17 7.94a.36.36 0 1 1-.06.58.37.37 0 0 1 .06-.58zM34.5 7.93a.36.36 0 1 1 .13.68.36.36 0 0 1-.13-.68z"/><path class="cls-1" d="M18.58 8.11a.47.47 0 0 1 .55.62.47.47 0 1 1-.55-.62zM31.21 8.11a.47.47 0 1 1-.22.78.47.47 0 0 1 .22-.78z"/><path class="cls-3" d="M18.34 8.55a.35.35 0 0 1 .47-.32.36.36 0 0 1 .21.46c-.05.15-.22.2-.34.26-.16-.08-.37-.19-.34-.4zM31 8.64a.36.36 0 0 1 .51-.39.37.37 0 0 1 .15.49c-.07.11-.21.15-.32.22S31 8.81 31 8.64z"/><path class="cls-1" d="M24.7 8.71a.76.76 0 1 1-.45.76.77.77 0 0 1 .45-.76z"/><path class="cls-5" d="M16.21 9.32a5.13 5.13 0 0 1 1.68-.59 1.13 1.13 0 0 0 .49.59v.3a.92.92 0 0 0-.43.63 1.15 1.15 0 0 0 .43 1 1.35 1.35 0 0 0 .72.1.86.86 0 0 1-.33.5c-.27.17-.75.1-.84-.26a.85.85 0 0 0-.55-.6.82.82 0 0 0-1.06.61c-.09.28.11.52.17.77a.72.72 0 0 1-.65.62c.13-.19.32-.36.31-.61a1.29 1.29 0 0 0-.56-1.07 7 7 0 0 1 .34-1.66.7.7 0 0 1 .31-.31z"/><path class="cls-3" d="M24.77 8.8a.64.64 0 1 1-.17 1.1.65.65 0 0 1 .17-1.1z"/><path class="cls-5" d="M31.63 9.32a1.3 1.3 0 0 0 .51-.6 4.16 4.16 0 0 1 1.93.82 5.76 5.76 0 0 1 .39 1.76 1.31 1.31 0 0 0-.56 1.06c0 .25.19.43.32.62a.77.77 0 0 1-.61-.43c-.15-.29.18-.53.15-.82a.83.83 0 0 0-1.09-.73.89.89 0 0 0-.57.75.71.71 0 0 1-.77.12.8.8 0 0 1-.36-.52 1.36 1.36 0 0 0 .71-.1 1.12 1.12 0 0 0 .44-.92.82.82 0 0 0-.41-.68l-.07-.32z"/><path class="cls-1" d="M14.63 9a.47.47 0 1 1-.15.76.48.48 0 0 1 .15-.76zM35 9a.47.47 0 1 1-.15.77A.47.47 0 0 1 35 9z"/><path class="cls-3" d="M35.11 9a.36.36 0 1 1-.19.57.36.36 0 0 1 .19-.57zM14.67 9.06a.36.36 0 0 1 .47.47.36.36 0 0 1-.62.07.35.35 0 0 1 .15-.54z"/><path class="cls-1" d="M19.28 9.37a.76.76 0 1 1-.39 1.24.76.76 0 0 1 .39-1.24zM30.36 9.38a.76.76 0 1 1-.36 1.21.77.77 0 0 1 .37-1.22z"/><path class="cls-3" d="M19.2 9.51a.64.64 0 1 1-.13 1.12.65.65 0 0 1 .13-1.12zM30.35 9.5a.65.65 0 1 1-.43.61.65.65 0 0 1 .43-.61z"/><path class="cls-1" d="M14.41 10.23a.47.47 0 1 1-.26.74.47.47 0 0 1 .26-.74zM35.38 10.23a.47.47 0 1 1-.22.76.47.47 0 0 1 .22-.76z"/><path class="cls-3" d="M14.39 10.34a.36.36 0 0 1 .47.4c0 .18-.21.25-.35.33a.61.61 0 0 1-.4-.41c.07-.12.12-.29.28-.33zM35.37 10.35a.36.36 0 1 1 0 .66.36.36 0 0 1 0-.66z"/><path class="cls-1" d="M25 10.41h.1a1.79 1.79 0 0 0 .29.66c.16.18.37.3.53.48a16.66 16.66 0 0 1-1.74 0c.16-.15.34-.27.49-.42a1.5 1.5 0 0 0 .33-.7z"/><path class="cls-5" d="M24.56 11.4a3.31 3.31 0 0 0 .46-.59 2.19 2.19 0 0 0 .44.59z"/><path class="cls-1" d="M22.22 10.94h.33c.2.31.56.44.84.67-.6.09-1.21.16-1.82.23a1.52 1.52 0 0 1 .34-.39 1.89 1.89 0 0 0 .31-.49zM27.37 11c.09-.15.27-.09.42-.1a2 2 0 0 0 .3.48c.12.13.28.23.35.41-.38 0-.76-.11-1.14-.14a1.6 1.6 0 0 1-.67-.15 2.14 2.14 0 0 0 .74-.51zM19.53 11.8a7.43 7.43 0 0 0 .17-.8 2.51 2.51 0 0 0 .45.59 4.83 4.83 0 0 0 .66.34 8.48 8.48 0 0 1-1 .28 2.13 2.13 0 0 1-.65.13c.1-.2.28-.35.37-.56z"/><path class="cls-5" d="M22 11.62a2.19 2.19 0 0 1 .43-.56c.18.14.33.3.51.44l-.94.13zM27.09 11.49a6.14 6.14 0 0 0 .51-.49 6.46 6.46 0 0 1 .45.59l-1-.13z"/><path class="cls-1" d="M29.81 11.64c.24-.14.31-.44.53-.6a3.61 3.61 0 0 0 .12.71 6 6 0 0 0 .41.63c-.55-.09-1.09-.27-1.63-.4.14-.19.4-.2.58-.34z"/><path class="cls-5" d="M29.66 11.93a2.87 2.87 0 0 0 .56-.47 2.32 2.32 0 0 0 .27.68c-.27-.08-.55-.15-.83-.21zM19.8 11.46a2.63 2.63 0 0 0 .57.47 8.47 8.47 0 0 0-.84.21 2.58 2.58 0 0 0 .27-.68z"/><path class="cls-1" d="M14.42 11.65a.77.77 0 0 1 1 .94.76.76 0 1 1-1-.94zM35.17 11.64a.76.76 0 1 1 0 1.46.76.76 0 0 1-.49-1.1.79.79 0 0 1 .49-.41z"/><path class="cls-3" d="M35.15 11.76a.65.65 0 1 1-.15 1.15.65.65 0 0 1 .14-1.15zM14.32 11.82a.67.67 0 0 1 .82.13.66.66 0 0 1-.21 1 .65.65 0 0 1-.61-1.14z"/><path class="cls-1" d="M17.11 12.43l.42-.16a7.7 7.7 0 0 0 .87.37c-.32.16-.66.26-1 .4a2.63 2.63 0 0 1-.73.25 3.48 3.48 0 0 0 .42-.85zM31.69 12.55a2.14 2.14 0 0 0 .81-.29 4.24 4.24 0 0 1 .4.19 5 5 0 0 0 .42.83c-.57-.14-1.08-.43-1.64-.61v-.13z"/><path class="cls-5" d="M17.24 12.56l.29-.12.41.22-.87.35.18-.45zM32.06 12.65l.44-.21.28.12.22.44-.89-.36z"/><path class="cls-2" d="M16.95 14.23a19.3 19.3 0 0 1 15.87-.12 3 3 0 0 1 .44.22v.1l-.76.29q.1.45.23.89c0 .2-.19.07-.29 0A17.13 17.13 0 0 0 25 14.07a17.16 17.16 0 0 0-7.4 1.62.22.22 0 0 1-.28-.05l.13-.21c0-.24.1-.47.14-.7-.27-.1-.53-.21-.81-.29a.31.31 0 0 1 .19-.2z"/><path class="cls-1" d="M24.85 12.74c.17-.09.35 0 .52.07.33.13.68.24 1 .39 0 .1-.13.1-.2.14l-1 .38c-.16.07-.32 0-.47-.07-.34-.14-.71-.24-1-.41 0-.09.16-.1.24-.14l1-.36z"/><path class="cls-5" d="M23.87 13.23c.37-.16.76-.29 1.14-.43l1.13.43c-.33.12-.66.26-1 .37a.59.59 0 0 1-.44-.05l-.84-.32z"/><path class="cls-1" d="M22.52 12.9a.47.47 0 1 1-.11.82.47.47 0 0 1 .11-.82zM27.18 12.9a.47.47 0 1 1-.23.72.46.46 0 0 1 .23-.72z"/><path class="cls-3" d="M22.52 13a.35.35 0 1 1-.1.54.35.35 0 0 1 .1-.54zM27.17 13a.36.36 0 1 1-.07.59.36.36 0 0 1 .07-.59z"/><path class="cls-1" d="M20 13.5c.14-.09.27-.23.45-.2a10.78 10.78 0 0 1 1.36.17c-.39.3-.79.58-1.2.84a9.2 9.2 0 0 1-1.52-.16c.29-.24.6-.43.9-.65zM28.24 13.44a12.56 12.56 0 0 1 1.52-.13 12 12 0 0 1 1.2.85c-.49.08-1 .13-1.47.16a7.91 7.91 0 0 1-1.24-.88zM18.07 14.1a.47.47 0 0 1 .58.59.46.46 0 0 1-.78.19.47.47 0 0 1 .21-.78zM31.7 14.09a.47.47 0 0 1 .57.52.47.47 0 0 1-.75.3.47.47 0 0 1 .18-.82z"/><path class="cls-3" d="M31.63 14.24a.35.35 0 0 1 .53.31.35.35 0 0 1-.53.31.37.37 0 0 1 0-.62zM18 14.26a.36.36 0 1 1 .07.63.37.37 0 0 1-.07-.63z"/><path class="cls-1" d="M15.16 17.74a17.13 17.13 0 0 1 26.95 13.19 19.72 19.72 0 0 1-.1 2.83 17.14 17.14 0 0 1-16.44 15.1h-1.18a16.93 16.93 0 0 1-9.93-3.62 17.12 17.12 0 0 1 .7-27.5z"/><path class="cls-5" d="M32.58 14.8l.48-.18.12.47-.46.26c0-.18-.09-.37-.14-.55zM16.84 15.1l.12-.48.49.19-.14.54-.46-.25z"/><path class="cls-2" d="M24.4 15.12a16.65 16.65 0 0 1 15.41 24.23 16.74 16.74 0 0 1-4.57 5.52 16.61 16.61 0 0 1-17 2.07A16.77 16.77 0 0 1 12 42.12a16.65 16.65 0 0 1 12.41-27z"/><path class="cls-1" d="M24.09 16.59a15.2 15.2 0 1 1-4.64 1 15.16 15.16 0 0 1 4.64-1z"/><path class="cls-3" d="M23.38 17.15a14.69 14.69 0 1 1-1.88.34 14.34 14.34 0 0 1 1.88-.34z"/><path class="cls-1" d="M31.69 19.27A14.22 14.22 0 0 1 37.42 25a14.08 14.08 0 0 1-1.47 15.53 14.2 14.2 0 0 1-5.32 4.06l-3.77-3.86a10.78 10.78 0 0 1-1.74.21v2.11h-2.6v-2.42a9.58 9.58 0 0 1-5.87-4.54 9.18 9.18 0 0 1-1-6.77q-.78-.82-1.58-1.61a13.11 13.11 0 0 0-.72 4.09 10.54 10.54 0 0 0 2.34 6.44 6.74 6.74 0 0 0 .65.7c-.61.64-1.22 1.28-1.85 1.9a1.44 1.44 0 0 1-.31-.31A14.08 14.08 0 0 1 11.94 37a13.77 13.77 0 0 1-.41-9.45 14.09 14.09 0 0 1 6.73-8.19c1.08 1.15 2.18 2.28 3.27 3.42a10.05 10.05 0 0 1 4.71-.52 10.59 10.59 0 0 1 2.12.52c1.12-1.15 2.23-2.3 3.33-3.46z"/><path class="cls-2" d="M30 21.69c.59-.59 1.15-1.2 1.74-1.8a13.79 13.79 0 0 1 5.3 5.56 13.57 13.57 0 0 1-1.54 14.84l-1.36-1.36a12.92 12.92 0 0 0 1.93-3.07 10.52 10.52 0 0 0 .84-3.86 12.3 12.3 0 0 0-2.61-7.85A9.19 9.19 0 0 0 32.09 22a1.15 1.15 0 0 0-.22.19c-.46.48-.93.95-1.39 1.43a3.1 3.1 0 0 0-.44.49 9.32 9.32 0 0 1 2.42 2.5c-.44.37-.87.76-1.32 1.13A7.2 7.2 0 0 0 29 25.51c-.06 0-.15-.13-.21-.05-1.26 1.32-2.51 2.66-3.77 4q-2-2.05-4-4.09a7.81 7.81 0 0 0-2.18 2.15 7.56 7.56 0 0 0-1.24 4.56A6.74 6.74 0 0 0 19.12 36 7.7 7.7 0 0 0 23 38.46V31.6h4.52v1.19h-2.89v2h2.84v1.42h-2.84v2.48A6.36 6.36 0 0 0 28 38a8.65 8.65 0 0 0 2.26-1.64 1.38 1.38 0 0 1 .21-.18c.44.41.84.85 1.27 1.27a9.36 9.36 0 0 1-7.1 3.07v2.1H23v-2.3a9.12 9.12 0 0 1-5.63-3.91 8.74 8.74 0 0 1-1.06-7.54 9.5 9.5 0 0 1 3.56-4.68l-1.64-1.69a3.38 3.38 0 0 0-.47-.45 12.27 12.27 0 0 0-4.46 6.62 11.79 11.79 0 0 0-.3 4.87A11.06 11.06 0 0 0 15.67 39c-.38.41-.78.8-1.16 1.2a13.11 13.11 0 0 1-3-6.56 13.45 13.45 0 0 1 .2-5 13.7 13.7 0 0 1 6.46-8.74c1.06 1.13 2.15 2.24 3.22 3.37a9.57 9.57 0 0 1 7.08 0c.55-.51 1-1.08 1.57-1.61z"/><path class="cls-3" d="M30.75 24.09c.47-.47.92-1 1.4-1.42A11.37 11.37 0 0 1 36 28.39a11.11 11.11 0 0 1 .42 4.45A9.24 9.24 0 0 1 35 36.93l-8.3-8.59L28.87 26A6.76 6.76 0 0 1 31 28.54l2.09-1.8a9.39 9.39 0 0 0-2.35-2.65z"/><path class="cls-1" d="M22.63 24.58a8.58 8.58 0 0 1 2.47-.31 9.66 9.66 0 0 1 2.11.38c-.73.79-1.47 1.58-2.23 2.35-.78-.81-1.59-1.6-2.35-2.42z"/><path class="cls-3" d="M23.6 24.86a6.9 6.9 0 0 1 2.7.06c-.44.46-.87.93-1.32 1.38-.45-.49-1-.93-1.38-1.44zM18.08 31.82c1.47 1.52 3 3 4.44 4.54v1.42a7 7 0 0 1-3.08-2.18 6.22 6.22 0 0 1-1.36-3.78z"/><path class="cls-6" d="M24.39 48.87h1.18V49H24.5l-.11-.13z"/></svg>