<svg id="Capa_1" data-name="Capa 1" xmlns="http://www.w3.org/2000/svg" viewBox="0 0 50 50"><defs><style>.cls-1{fill:#1a171b}.cls-2{fill:#e2b900}.cls-3{fill:#db2f36}.cls-4{fill:#ffdf00}.cls-5{fill:#fff}.cls-6{fill:#004b95}.cls-7{fill:#a4224b}</style></defs><path class="cls-1" d="M15.2 4A14 14 0 0 0 18 2.47 11.76 11.76 0 0 0 25 5a11.74 11.74 0 0 0 7-2.49 15.29 15.29 0 0 0 2.47 1.36 13.63 13.63 0 0 0 5.5.83 11.19 11.19 0 0 0 3.93-.78c.63.93 1.44 1.74 2 2.71a13.44 13.44 0 0 0-2.22 3.68 11.47 11.47 0 0 0-.07 7.69A15.93 15.93 0 0 0 48 24.81c-.76.75-1.54 1.48-2.27 2.25 0 .75.08 1.51 0 2.27a15.1 15.1 0 0 1-3.28 9.3 16.37 16.37 0 0 1-7.79 5.07 25.44 25.44 0 0 1-6.22 1.12A40 40 0 0 1 25 47.53c-1.14-.81-2.25-1.66-3.3-2.57a.57.57 0 0 0-.43-.17 21.42 21.42 0 0 1-10.48-3.23 14.15 14.15 0 0 1-5.52-6.85 18.3 18.3 0 0 1-1-7.62c-.73-.79-1.53-1.51-2.28-2.28a15.9 15.9 0 0 0 4.56-7.42 11.32 11.32 0 0 0-.29-7.11 13.4 13.4 0 0 0-2.21-3.67c.56-1 1.37-1.78 2-2.71a12.61 12.61 0 0 0 3.33.76A15.17 15.17 0 0 0 15.2 4z"/><path class="cls-2" d="M14.47 5.2a11.92 11.92 0 0 0 3.46-1.56A12.28 12.28 0 0 0 25 5.93a12.27 12.27 0 0 0 7.06-2.28 11.92 11.92 0 0 0 3.47 1.56 18.26 18.26 0 0 0 4.61.44A11.75 11.75 0 0 0 43.55 5c.38.51.82 1 1.18 1.5A12.25 12.25 0 0 0 42 14.8a15.81 15.81 0 0 0 4.58 10c-.66.63-1.29 1.28-1.93 1.93a16 16 0 0 1-2 10 14.62 14.62 0 0 1-7.72 5.92 23.18 23.18 0 0 1-6.67 1.25c-.2 0-.33.14-.47.25-.88.79-1.82 1.52-2.78 2.23-1-.73-2-1.51-2.91-2.33-.22-.22-.57-.14-.85-.18a19.11 19.11 0 0 1-11.37-4.24A13.28 13.28 0 0 1 5.56 32a19.1 19.1 0 0 1-.24-5.32c-.63-.65-1.27-1.3-1.92-1.93A15.83 15.83 0 0 0 8 14.81a12.25 12.25 0 0 0-2.74-8.26c.36-.53.8-1 1.18-1.5a11.8 11.8 0 0 0 3.41.6 18.23 18.23 0 0 0 4.62-.45z"/><path class="cls-1" d="M17.9 5.44a13.7 13.7 0 0 0 8.07 2 13.91 13.91 0 0 0 6.11-2 13.28 13.28 0 0 0 5.76 1.66 17.22 17.22 0 0 0 4.76-.21 13.42 13.42 0 0 0-2.16 8A16.24 16.24 0 0 0 42 20.81H8a15.11 15.11 0 0 0 1.43-8.49A13.8 13.8 0 0 0 7.4 6.88a12.72 12.72 0 0 0 2.35.27 18.68 18.68 0 0 0 5.44-.57 13.3 13.3 0 0 0 2.71-1.14z"/><path class="cls-3" d="M14.58 7a14 14 0 0 0 3.33-1.27 17 17 0 0 0 1.78.89v4.67h5.18v5H19.7v4.22h-5.12V16.3H9.72a13.51 13.51 0 0 0-.14-5h5V7zM30.3 6.67a17.16 17.16 0 0 0 1.81-.91v14.72H30.3V6.64z"/><path class="cls-4" d="M32.11 5.79a19.13 19.13 0 0 0 1.76.79v13.93h-1.76V5.79z"/><path class="cls-3" d="M33.87 6.58a12.35 12.35 0 0 0 1.81.51V20.5h-1.81V6.57z"/><path class="cls-5" d="M19.7 6.67a14.07 14.07 0 0 0 5.18 1.08v3.6H19.7V6.68z"/><path class="cls-4" d="M28.51 7.28a16.53 16.53 0 0 0 1.79-.61v13.84h-1.79V7.28z"/><path class="cls-5" d="M8 7.28A19.32 19.32 0 0 0 14.58 7v4.3h-5A14.41 14.41 0 0 0 8 7.28z"/><path class="cls-4" d="M35.68 7.11c.58.1 1.16.19 1.75.25V20.5h-1.75V7.09z"/><path class="cls-3" d="M26.69 7.64a16.79 16.79 0 0 0 1.82-.35v13.23h-1.82V7.64z"/><path class="cls-4" d="M39.26 7.45A14.58 14.58 0 0 0 42 7.28a13.56 13.56 0 0 0-1.88 7.65 16.11 16.11 0 0 0 1.39 5.59h-2.25V7.45z"/><path class="cls-3" d="M37.43 7.37c.61 0 1.21.07 1.82.08v13.07h-1.81V7.38z"/><path class="cls-4" d="M25.12 7.75c.53 0 1.05-.06 1.57-.11v12.88h-1.57V7.75z"/><path class="cls-5" d="M9.72 16.3h4.87v4.22H8.47a17.08 17.08 0 0 0 1.25-4.22zM19.7 16.3h5.18v4.22H19.7V16.3z"/><path class="cls-1" d="M24.07 21.55a2.18 2.18 0 0 1 1.78.26 2.34 2.34 0 0 1 .6.72l-1 .42a1 1 0 0 0-1.49-.2 1.76 1.76 0 0 0-.24 1.66 1 1 0 0 0 1.12.7c.32 0 .48-.34.67-.56l.88.52a2.23 2.23 0 0 1-.76.82 2.1 2.1 0 0 1-2.58-.46 2.87 2.87 0 0 1-.43-2.25 2.08 2.08 0 0 1 1.41-1.63zM17.37 21.54h3.39v1h-2.33v.7h1.36v1h-1.36v1.84h-1.06v-4.51zM28.81 21.54h2.12a1.67 1.67 0 0 1 1.22.4 1.2 1.2 0 0 1-.07 1.67 1.34 1.34 0 0 1-.47 2.39 21.22 21.22 0 0 1-2.79.07v-4.53z"/><path class="cls-2" d="M29.81 22.48a11.54 11.54 0 0 1 1.35 0 .34.34 0 0 1 0 .65H29.8v-.7zM29.81 24.09h1.35c.45 0 .53.81.09.95a7.53 7.53 0 0 1-1.44.06v-1z"/><path class="cls-1" d="M6.94 26.82h36.12a15.33 15.33 0 0 1-.29 5.54 11.49 11.49 0 0 1-4.44 6.73 19.21 19.21 0 0 1-9.94 3.22c-1.37.12-2.75.05-4.12.07a25.67 25.67 0 0 1-7.93-1 13.47 13.47 0 0 1-7.35-5 13.55 13.55 0 0 1-2.19-8.1 11.87 11.87 0 0 1 .13-1.46z"/><path class="cls-6" d="M7.2 27.11h4.75v11.82a11.18 11.18 0 0 1-4.38-6.42 15.2 15.2 0 0 1-.37-5.4z"/><path class="cls-7" d="M11.95 27.11h5.21V41.3a16 16 0 0 1-5.21-2.36V27.12z"/><path class="cls-6" d="M17.16 27.11h5.21v3.18a4.74 4.74 0 0 0 0 8.19v3.57a24.4 24.4 0 0 1-5.21-.76V27.1z"/><path class="cls-7" d="M22.36 27.11h5.27v3.18a5.14 5.14 0 0 0-5.27 0v-3.18z"/><path class="cls-6" d="M27.63 27.11h5.21V41.3a24.5 24.5 0 0 1-5.21.76v-3.57A4.87 4.87 0 0 0 29.95 35a4.79 4.79 0 0 0-2.31-4.69v-3.18z"/><path class="cls-7" d="M32.84 27.11H38v11.82a16 16 0 0 1-5.21 2.36V27.1z"/><path class="cls-6" d="M38 27.11h4.8a14.21 14.21 0 0 1-1.22 7.7 11.07 11.07 0 0 1-3.52 4.12V27.11z"/><path class="cls-1" d="M22.36 30.29a5.14 5.14 0 0 1 5.27 0A4.79 4.79 0 0 1 29.95 35a4.87 4.87 0 0 1-2.32 3.5 5.14 5.14 0 0 1-5.26 0 4.74 4.74 0 0 1 0-8.19z"/><path class="cls-2" d="M22.37 30.55a5.3 5.3 0 0 1 2.24-.75 1.4 1.4 0 0 0-.36 1.07 1.51 1.51 0 0 0 .46.82 1.74 1.74 0 0 0-.54 1.86 2 2 0 0 0 .71.92 1.43 1.43 0 0 1-.65.81A1.37 1.37 0 0 1 22.6 35a2.58 2.58 0 0 1-.69-1.84 9.08 9.08 0 0 1 .47-2.65z"/><path class="cls-2" d="M24.5 30.6a1.28 1.28 0 0 1 .49-.81 4.82 4.82 0 0 1 3.8 1.84 4.59 4.59 0 0 1 .95 2.52A5.6 5.6 0 0 0 26 31.47a2.77 2.77 0 0 0-1.06.08 1.17 1.17 0 0 1-.4-1zM20.42 33.21A4.54 4.54 0 0 1 22 30.79a6.51 6.51 0 0 0-.29 3.12 2.64 2.64 0 0 0 .72 1.37 1.89 1.89 0 0 1-1.89.82 4.83 4.83 0 0 1-.16-2.9z"/><path class="cls-2" d="M24.85 31.9A2.31 2.31 0 0 1 27 32a4.93 4.93 0 0 1 2.71 2.66 3.6 3.6 0 0 1-.32 1.56 1.59 1.59 0 0 0-.87-.9 1.91 1.91 0 0 0-1.16 0A1.53 1.53 0 0 0 26.19 34a1.73 1.73 0 0 0-1.22.29 1.49 1.49 0 0 1-.12-2.34z"/><path class="cls-2" d="M25.15 34.4a1.5 1.5 0 0 1 .92-.22 1.19 1.19 0 0 1 .93 1.64A3.13 3.13 0 0 1 25.74 37a7.14 7.14 0 0 1-3.77 1 5.19 5.19 0 0 1-1.25-1.54 2.27 2.27 0 0 0 1.94-1 2.13 2.13 0 0 0 1.12.27 1.67 1.67 0 0 0 1.37-1.3z"/><path class="cls-2" d="M27.32 35.56a1.55 1.55 0 0 1 1.37.16 1.49 1.49 0 0 1 .47.87 4.8 4.8 0 0 1-2.87 2.2 5 5 0 0 1-4-.61 7.63 7.63 0 0 0 3.38-.9 3.23 3.23 0 0 0 1.64-1.72z"/><path class="cls-7" d="M22.37 38.48a5.14 5.14 0 0 0 5.26 0v3.57h-5.26v-3.57z"/></svg>